# xmcd
#
# Track frame offsets:
#	150
#	45100
#	73552
#	103950
#	138775
#	160687
#	170025
#	194550
#	216157
#	233062
#	250462
#	287025
#
# Disc length: 4230 seconds
#
# Revision: 1
# Processed by: cddbd v1.5.1PL0 Copyright (c) Steve Scherf et al.
# Submitted via: CDex 1.50Beta5
#
DISCID=ad10840c
DTITLE=Various Artist - Tha Best Of JAZZ STANDARD
DYEAR=1900
DGENRE=Jazz
TTITLE0=MILES DAVIS/ON GREEN DOLPHIN STREET
TTITLE1=CHARLIE ROUSE/STELLA BY STARLIGHT (星影のステラ)
TTITLE2=ART BLAKEY/THE END OF A LOVE AFFAIR (恋の終わり)
TTITLE3=BILL EVANS/WALTZ FOR DEBBY
TTITLE4=DAVE BRUBECK/WHEN YOU WISH UPON A STAR(星に願いを)
TTITLE5=DAVE BRUBECK/UNSQUARE DANCE
TTITLE6=RAY BRYANT/AUTUMN LEAVES(枯葉)
TTITLE7=PHIL WOODS/I LOVE YOU
TTITLE8=CHARLES MINGUS/BOOGIE STOP SHUFFLE
TTITLE9=THELONIOUS MONK/ROUND MIDNIGHT
TTITLE10=DUKE ELIINGTON/TAKE THE "A" TRAIN(A列車で行こう)
TTITLE11=J.J.JOHNSON/OLD DEVIL MOON
EXTD=
EXTT0=
EXTT1=
EXTT2=
EXTT3=
EXTT4=
EXTT5=
EXTT6=
EXTT7=
EXTT8=
EXTT9=
EXTT10=
EXTT11=
PLAYORDER=
